<?xml version="1.0" encoding="UTF-8"?>
<svg id="Layer_1" xmlns="http://www.w3.org/2000/svg" version="1.1" viewBox="0 0 281.56 120">
  <!-- Generator: Adobe Illustrator 29.8.3, SVG Export Plug-In . SVG Version: 2.1.1 Build 3)  -->
  <defs>
    <style>
      .st0 {
        fill: #fff;
      }

      .st1 {
        fill: #cb574a;
      }
    </style>
  </defs>
  <path class="st1" d="M15.29,5.57l.6-.6c3.82-3.82,10.01-3.82,13.83,0l8.12,8.12,7.52,7.52.6.6c3.82,3.82,3.82,10.01,0,13.83l-3.46,3.46-1.14,1.14-15.04,15.03c-4.15,4.15-4.15,10.89,0,15.05l7.52,7.52,7.52,7.52.6.6c3.82,3.82,3.82,10.01,0,13.83l-8.12,8.12-7.52,7.52-.6.6c-1.18,1.18-2.59,2-4.09,2.44-.19.06-.33-.18-.19-.32l7.43-7.43.6-.6c3.82-3.82,3.82-10.02,0-13.84l-.6-.6-15.04-15.04c-4.15-4.15-4.15-10.89,0-15.05l15.04-15.03,1.14-1.14,3.46-3.46c3.82-3.82,3.82-10.02,0-13.84l-.6-.6-7.52-7.52-8.12-8.12c-2.1-2.11-4.93-3.05-7.68-2.83-.43.03-.67-.48-.37-.79l6.11-6.11Z"/>
  <g>
    <path class="st0" d="M86.12,79.86c.44.44.66.97.66,1.57v2.98c0,.61-.22,1.13-.66,1.57s-.97.66-1.57.66h-9.58c-.61,0-1.13-.22-1.57-.66-.44-.44-.66-.96-.66-1.57V30.97c0-.61.22-1.13.66-1.57.44-.44.96-.66,1.57-.66h3.39c.61,0,1.13.22,1.57.66.44.44.66.97.66,1.57v46.87c0,.74.6,1.35,1.35,1.35h2.61c.61,0,1.13.22,1.57.66Z"/>
    <path class="st0" d="M108.95,79.86c.44.44.66.97.66,1.57v2.98c0,.61-.22,1.13-.66,1.57s-.97.66-1.57.66h-9.46c-.61,0-1.13-.22-1.57-.66-.44-.44-.66-.96-.66-1.57V30.97c0-.61.22-1.13.66-1.57.44-.44.96-.66,1.57-.66h3.39c.61,0,1.13.22,1.57.66.44.44.66.97.66,1.57v46.87c0,.74.6,1.35,1.35,1.35h2.49c.61,0,1.13.22,1.57.66Z"/>
    <path class="st0" d="M148.95,48.43c3.42,3.75,5.13,8.85,5.13,15.3v2.23c0,.61-.22,1.13-.66,1.57-.44.44-.97.66-1.57.66h-28.45v.5c.11,3.64,1.23,6.49,3.35,8.56,2.12,2.07,4.87,3.1,8.23,3.1,2.76,0,4.89-.36,6.41-1.08,1.52-.72,2.88-1.74,4.09-3.06.44-.44.84-.74,1.2-.91.36-.17.84-.25,1.45-.25h2.48c.66,0,1.21.22,1.65.66.44.44.63.97.58,1.57-.22,1.49-1.03,3.02-2.44,4.59-1.41,1.57-3.42,2.89-6.04,3.97-2.62,1.08-5.75,1.61-9.39,1.61s-6.67-.81-9.43-2.44c-2.76-1.63-4.95-3.87-6.58-6.74-1.63-2.87-2.61-6.09-2.94-9.68-.11-1.65-.17-2.92-.17-3.8s.05-2.15.17-3.8c.33-3.42,1.31-6.51,2.94-9.26,1.63-2.76,3.8-4.93,6.53-6.53,2.73-1.6,5.89-2.4,9.47-2.4,5.9,0,10.56,1.88,13.98,5.62ZM146.64,61.25v-.25c0-3.36-1.06-6.05-3.18-8.06-2.12-2.01-4.95-3.02-8.48-3.02-3.2,0-5.91,1.02-8.15,3.06-2.23,2.04-3.38,4.71-3.43,8.02v.25h23.24Z"/>
    <path class="st0" d="M187.5,44.29c.44.44.66.97.66,1.57v2.65c0,.61-.22,1.13-.66,1.57-.44.44-.97.66-1.57.66h-4.8c-3.09,0-5.45.81-7.07,2.44-1.63,1.63-2.44,3.98-2.44,7.07v24.15c0,.61-.22,1.13-.66,1.57-.44.44-.97.66-1.57.66h-3.06c-.61,0-1.13-.22-1.57-.66-.44-.44-.66-.96-.66-1.57v-38.54c0-.61.22-1.13.66-1.57.44-.44.96-.66,1.57-.66h3.06c.61,0,1.13.22,1.57.66.44.44.66.97.66,1.57v2.56c1.1-1.65,2.43-2.87,3.97-3.64,1.54-.77,3.56-1.16,6.04-1.16h4.3c.61,0,1.13.22,1.57.66Z"/>
    <path class="st0" d="M220.91,59.43v-1.08c0-2.7-.9-4.78-2.69-6.24-1.79-1.46-4.12-2.19-6.99-2.19-2.21,0-3.93.37-5.17,1.12s-2.41,1.86-3.52,3.35c-.33.44-.69.74-1.08.91-.39.17-.91.25-1.57.25h-2.48c-.61,0-1.15-.22-1.61-.66-.47-.44-.68-.96-.62-1.57.17-1.65.98-3.29,2.44-4.92,1.46-1.63,3.4-2.96,5.83-4.01,2.43-1.05,5.02-1.57,7.77-1.57,5.13,0,9.28,1.43,12.45,4.3,3.17,2.87,4.76,6.89,4.76,12.08v25.23c0,.61-.22,1.13-.66,1.57-.44.44-.97.66-1.57.66h-3.06c-.61,0-1.13-.22-1.57-.66-.44-.44-.66-.96-.66-1.57v-3.39c-.88,1.99-2.76,3.56-5.62,4.71-2.87,1.16-5.74,1.74-8.6,1.74s-5.32-.51-7.53-1.53c-2.21-1.02-3.9-2.41-5.09-4.18-1.19-1.76-1.78-3.75-1.78-5.96,0-4.14,1.54-7.37,4.63-9.72,3.09-2.34,7.2-3.93,12.32-4.76l11.66-1.9ZM220.91,66.04l-9.76,1.57c-3.58.55-6.37,1.45-8.35,2.69-1.99,1.24-2.98,2.8-2.98,4.67,0,1.38.63,2.62,1.9,3.72,1.27,1.1,3.2,1.65,5.79,1.65,3.97,0,7.2-1.13,9.68-3.39,2.48-2.26,3.72-5.21,3.72-8.85v-2.07Z"/>
    <path class="st0" d="M238.78,55.21c0-2.26.61-4.33,1.82-6.2,1.21-1.87,3.02-3.38,5.42-4.51,2.4-1.13,5.33-1.7,8.81-1.7s6.37.5,8.85,1.49c2.48.99,4.37,2.23,5.67,3.72,1.29,1.49,1.94,2.92,1.94,4.3,0,.55-.22,1.03-.66,1.45-.44.41-.97.62-1.57.62h-2.73c-1.05,0-1.88-.39-2.48-1.16-1.71-2.2-4.71-3.31-9.02-3.31-2.54,0-4.59.47-6.16,1.41-1.57.94-2.36,2.23-2.36,3.89,0,1.38.39,2.43,1.16,3.14.77.72,1.93,1.3,3.47,1.74,1.54.44,4.27,1.1,8.19,1.99,4.85,1.05,8.3,2.65,10.34,4.8,2.04,2.15,3.06,4.77,3.06,7.86,0,2.26-.7,4.36-2.11,6.29-1.41,1.93-3.42,3.49-6.04,4.67-2.62,1.19-5.67,1.78-9.14,1.78s-6.44-.54-9.06-1.61c-2.62-1.08-4.65-2.38-6.08-3.93-1.43-1.54-2.15-3-2.15-4.38,0-.55.22-1.03.66-1.45.44-.41.96-.62,1.57-.62h2.98c.5,0,.94.06,1.32.17.39.11.74.41,1.08.91,1.82,2.54,5.05,3.8,9.68,3.8,2.59,0,4.87-.54,6.82-1.61,1.96-1.08,2.94-2.41,2.94-4.01,0-1.32-.48-2.38-1.45-3.18-.97-.8-2.36-1.46-4.18-1.99-1.82-.52-4.66-1.2-8.52-2.03-8.05-1.71-12.08-5.82-12.08-12.32Z"/>
  </g>
</svg>