<?xml version="1.0" encoding="UTF-8"?>
<svg id="Layer_1" xmlns="http://www.w3.org/2000/svg" version="1.1" viewBox="0 0 211.32 193.35">
  <!-- Generator: Adobe Illustrator 29.8.3, SVG Export Plug-In . SVG Version: 2.1.1 Build 3)  -->
  <defs>
    <style>
      .st0 {
        fill: #fff;
      }

      .st1 {
        fill: #cb574a;
      }
    </style>
  </defs>
  <path class="st1" d="M91.4,3.62l.63-.63c3.99-3.99,10.47-3.99,14.45,0l8.49,8.49,7.86,7.86.63.63c3.99,3.99,3.99,10.47,0,14.46l-3.61,3.61-1.19,1.19-15.72,15.71c-4.34,4.34-4.34,11.38,0,15.73l7.86,7.86,7.86,7.86.63.63c3.99,3.99,3.99,10.47,0,14.46l-8.49,8.49-7.86,7.86-.63.63c-1.23,1.23-2.71,2.09-4.27,2.55-.2.06-.35-.19-.2-.34l7.76-7.76.63-.63c3.99-3.99,3.99-10.47,0-14.46l-.63-.63-15.72-15.72c-4.34-4.34-4.34-11.38,0-15.73l15.72-15.71,1.19-1.19,3.62-3.62c3.99-3.99,3.99-10.47,0-14.46l-.63-.63-7.86-7.86-8.49-8.49c-2.2-2.2-5.15-3.19-8.03-2.96-.45.04-.7-.5-.38-.82l6.39-6.39Z"/>
  <g>
    <path class="st0" d="M14.16,185.3c.47.47.7,1.02.7,1.66v3.15c0,.64-.23,1.2-.7,1.66s-1.02.7-1.66.7H2.36c-.64,0-1.2-.23-1.66-.7-.47-.47-.7-1.02-.7-1.66v-56.52c0-.64.23-1.19.7-1.66.47-.47,1.02-.7,1.66-.7h3.59c.64,0,1.19.23,1.66.7.47.47.7,1.02.7,1.66v49.58c0,.79.64,1.43,1.43,1.43h2.76c.64,0,1.19.23,1.66.7Z"/>
    <path class="st0" d="M38.3,185.3c.47.47.7,1.02.7,1.66v3.15c0,.64-.23,1.2-.7,1.66s-1.02.7-1.66.7h-10c-.64,0-1.2-.23-1.66-.7-.47-.47-.7-1.02-.7-1.66v-56.52c0-.64.23-1.19.7-1.66.47-.47,1.02-.7,1.66-.7h3.59c.64,0,1.19.23,1.66.7.47.47.7,1.02.7,1.66v49.58c0,.79.64,1.43,1.43,1.43h2.63c.64,0,1.19.23,1.66.7Z"/>
    <path class="st0" d="M80.62,152.06c3.62,3.97,5.42,9.36,5.42,16.19v2.36c0,.64-.23,1.2-.7,1.66-.47.47-1.02.7-1.66.7h-30.1v.52c.12,3.85,1.3,6.87,3.54,9.06,2.24,2.19,5.15,3.28,8.71,3.28,2.92,0,5.18-.38,6.78-1.14,1.6-.76,3.05-1.84,4.33-3.24.47-.47.89-.79,1.27-.96.38-.17.89-.26,1.53-.26h2.62c.7,0,1.28.23,1.75.7.47.47.67,1.02.61,1.66-.23,1.57-1.09,3.19-2.58,4.86-1.49,1.66-3.62,3.06-6.39,4.2-2.77,1.14-6.08,1.71-9.93,1.71s-7.06-.86-9.97-2.58c-2.92-1.72-5.24-4.1-6.96-7.13-1.72-3.03-2.76-6.44-3.11-10.24-.12-1.75-.17-3.09-.17-4.02s.06-2.27.17-4.02c.35-3.62,1.38-6.88,3.11-9.8,1.72-2.92,4.02-5.22,6.91-6.91,2.89-1.69,6.23-2.54,10.02-2.54,6.24,0,11.17,1.98,14.79,5.95ZM78.17,165.62v-.26c0-3.56-1.12-6.4-3.37-8.53-2.25-2.13-5.24-3.19-8.97-3.19-3.38,0-6.26,1.08-8.62,3.24-2.36,2.16-3.57,4.99-3.63,8.49v.26h24.58Z"/>
    <path class="st0" d="M121.39,147.68c.47.47.7,1.02.7,1.66v2.8c0,.64-.23,1.2-.7,1.66-.47.47-1.02.7-1.66.7h-5.07c-3.27,0-5.76.86-7.48,2.58-1.72,1.72-2.58,4.21-2.58,7.48v25.55c0,.64-.23,1.2-.7,1.66-.47.47-1.02.7-1.66.7h-3.24c-.64,0-1.2-.23-1.66-.7-.47-.47-.7-1.02-.7-1.66v-40.77c0-.64.23-1.19.7-1.66.47-.47,1.02-.7,1.66-.7h3.24c.64,0,1.19.23,1.66.7.47.47.7,1.02.7,1.66v2.71c1.17-1.75,2.57-3.03,4.2-3.85,1.63-.82,3.76-1.22,6.39-1.22h4.55c.64,0,1.19.23,1.66.7Z"/>
    <path class="st0" d="M156.73,163.69v-1.14c0-2.86-.95-5.06-2.84-6.61-1.9-1.54-4.36-2.32-7.39-2.32-2.33,0-4.16.39-5.47,1.18-1.31.79-2.55,1.97-3.72,3.54-.35.47-.73.79-1.14.96-.41.17-.96.26-1.66.26h-2.62c-.64,0-1.21-.23-1.71-.7-.5-.47-.71-1.02-.66-1.66.17-1.75,1.03-3.48,2.58-5.21,1.54-1.72,3.6-3.13,6.17-4.24,2.57-1.11,5.31-1.66,8.22-1.66,5.42,0,9.81,1.52,13.17,4.55,3.35,3.03,5.03,7.29,5.03,12.77v26.68c0,.64-.23,1.2-.7,1.66-.47.47-1.02.7-1.66.7h-3.24c-.64,0-1.2-.23-1.66-.7-.47-.47-.7-1.02-.7-1.66v-3.59c-.93,2.1-2.92,3.76-5.95,4.99-3.03,1.22-6.07,1.84-9.1,1.84s-5.63-.54-7.96-1.62c-2.33-1.08-4.13-2.55-5.38-4.42-1.25-1.87-1.88-3.97-1.88-6.3,0-4.37,1.63-7.8,4.9-10.28,3.27-2.48,7.61-4.16,13.04-5.03l12.34-2.01ZM156.73,170.69l-10.32,1.66c-3.79.58-6.74,1.53-8.84,2.84-2.1,1.31-3.15,2.96-3.15,4.94,0,1.46.67,2.77,2.01,3.94,1.34,1.17,3.38,1.75,6.12,1.75,4.2,0,7.61-1.19,10.24-3.59,2.62-2.39,3.94-5.51,3.94-9.36v-2.19Z"/>
    <path class="st0" d="M175.63,159.23c0-2.39.64-4.58,1.92-6.56,1.28-1.98,3.19-3.57,5.73-4.77,2.54-1.19,5.64-1.79,9.32-1.79s6.74.52,9.36,1.57c2.62,1.05,4.62,2.36,5.99,3.94,1.37,1.57,2.06,3.09,2.06,4.55,0,.58-.23,1.09-.7,1.53-.47.44-1.02.66-1.66.66h-2.89c-1.11,0-1.98-.41-2.62-1.22-1.81-2.33-4.99-3.5-9.54-3.5-2.68,0-4.86.5-6.52,1.49-1.66.99-2.49,2.36-2.49,4.11,0,1.46.41,2.57,1.22,3.32.82.76,2.04,1.37,3.67,1.84,1.63.47,4.52,1.17,8.66,2.1,5.13,1.11,8.78,2.8,10.94,5.07,2.16,2.27,3.24,5.05,3.24,8.31,0,2.39-.74,4.61-2.23,6.65-1.49,2.04-3.62,3.69-6.39,4.94-2.77,1.25-5.99,1.88-9.67,1.88s-6.81-.57-9.58-1.71c-2.77-1.14-4.91-2.52-6.43-4.16-1.52-1.63-2.27-3.18-2.27-4.64,0-.58.23-1.09.7-1.53.47-.44,1.02-.66,1.66-.66h3.15c.52,0,.99.06,1.4.17.41.12.79.44,1.14.96,1.92,2.68,5.34,4.02,10.24,4.02,2.74,0,5.15-.57,7.22-1.71,2.07-1.14,3.11-2.55,3.11-4.24,0-1.4-.51-2.52-1.53-3.37-1.02-.84-2.49-1.54-4.42-2.1-1.92-.55-4.93-1.27-9.01-2.14-8.52-1.81-12.77-6.15-12.77-13.04Z"/>
  </g>
</svg>